<svg width="429" height="49" viewBox="0 0 429 49" fill="none"
    xmlns="http://www.w3.org/2000/svg">
    <path d="M99.2549 16.9V0.100006H104.755V47.8C103.455 47.8 102.255 47.8 101.055 47.8C100.855 47.8 100.455 47.3 100.455 46.9C100.255 45.6 100.055 44.4 99.8549 42.8C95.3549 47.3 89.9549 49 83.8549 48.3C79.2549 47.9 74.9549 45.6 72.0549 42C66.2549 35 66.7549 23.7 73.0549 17.1C79.0549 10.8 91.1549 9.50001 99.2549 16.9ZM86.5549 17.2C79.1549 17.2 73.5549 22.8 73.6549 30.2C73.6549 37.7 79.2549 43.1 86.5549 43.2C93.8549 43.2 99.5549 37.6 99.5549 30.2C99.4549 22.7 93.9549 17.2 86.5549 17.2Z" fill="#0F0F0F"/>
    <path d="M428.755 47.8C427.455 47.8 426.355 47.8 425.155 47.8C424.855 47.8 424.455 47.3 424.355 47C424.155 45.7 423.955 44.5 423.755 42.9C418.855 47.7 413.055 49.3 406.555 48.2C402.355 47.5 398.555 45.3 395.955 42C390.255 34.9 390.755 23.6 397.055 17.1C403.155 10.8 415.155 9.60001 423.155 16.9V0.199997H428.755V47.8ZM410.655 17.2C403.255 17.2 397.755 22.8 397.755 30.3C397.755 37.8 403.355 43.2 410.655 43.2C418.055 43.2 423.655 37.6 423.655 30.2C423.655 22.7 418.155 17.2 410.655 17.2Z" fill="#0F0F0F"/>
    <path d="M237.055 0H242.455V17C247.555 12.4 253.255 11 259.655 12.3C263.755 13 267.455 15.3 269.855 18.6C275.355 25.8 274.655 36.9 268.455 43.3C262.755 49.3 250.155 51.3 241.955 43C241.655 44.6 241.455 46.2 241.155 47.7H236.955L237.055 0ZM268.055 30.3C268.155 22.8 262.755 17.3 255.355 17.2C247.855 17.1 242.255 22.6 242.255 30C242.255 37.4 247.655 43.1 255.055 43.2C262.455 43.3 267.955 37.8 268.055 30.3Z" fill="#0F0F0F"/>
    <path d="M145.255 17.8C145.455 15.9 145.755 14.3 145.955 12.6H150.155V47.7H145.755C145.555 46 145.355 44.4 145.155 42.6C140.655 47.3 135.255 49.1 129.055 48.5C124.355 48.1 120.055 45.8 117.155 42.1C111.255 34.9 111.855 23.5 118.455 17C124.955 10.5 137.755 9.6 145.255 17.8ZM131.755 17.2C124.355 17.2 118.855 22.7 118.755 30.1C118.555 37.2 124.155 43 131.155 43.2C131.355 43.2 131.555 43.2 131.755 43.2C139.155 43.2 144.655 37.6 144.555 30.1C144.655 22.7 139.155 17.2 131.755 17.2Z" fill="#0F0F0F"/>
    <path d="M354.355 17.8C354.555 15.9 354.855 14.3 355.055 12.6H359.355V47.7H354.855C354.655 46.1 354.455 44.4 354.255 42.7C346.055 51.5 332.555 49.4 326.655 42.6C320.555 35.6 320.655 24.2 327.155 17.3C333.355 10.7 346.755 9.30001 354.355 17.8ZM340.855 17.2C333.455 17.2 327.955 22.7 327.855 30.1C327.655 37.2 333.255 43 340.255 43.2C340.455 43.2 340.655 43.2 340.855 43.2C348.255 43.2 353.655 37.6 353.655 30.1C353.755 22.7 348.255 17.2 340.855 17.2Z" fill="#0F0F0F"/>
    <path d="M200.655 47.7H195.255V0.100006H200.755V16.9C202.355 15.7 203.755 14.5 205.455 13.5C210.955 10.5 218.455 11.4 222.455 15.4C224.955 17.9 226.355 21.3 226.355 24.8C226.455 32.4 226.355 39.9 226.355 47.5H220.855V46.1C220.855 40.2 220.855 34.2 220.855 28.3C220.855 27 220.755 25.7 220.555 24.4C219.355 17.8 212.955 14.6 206.855 17.7C202.755 19.8 200.755 23.5 200.755 27.9C200.655 33.9 200.755 39.9 200.755 46L200.655 47.7Z" fill="#0F0F0F"/>
    <path d="M298.055 11.8C308.755 11.8 316.755 19.7 316.655 30.2C316.655 40.6 308.655 48.6 298.055 48.6C287.455 48.6 279.355 40.7 279.355 30.2C279.355 19.5 287.355 11.8 298.055 11.8ZM298.055 17.2C290.555 17.2 285.055 22.6 284.955 30.1C284.855 37.6 290.455 43.2 297.955 43.2C305.455 43.2 311.055 37.7 311.055 30.2C311.055 22.7 305.555 17.2 298.055 17.2Z" fill="#0F0F0F"/>
    <path d="M185.755 22.8C184.155 22.8 182.655 22.8 181.155 22.8C180.955 22.8 180.555 22.4 180.555 22.1C180.155 19.6 178.555 18 176.155 17.4C173.155 16.6 170.055 16.6 167.155 18C165.555 18.7 164.555 20.3 164.655 22.1C164.655 23.9 165.855 25.4 167.555 25.7C170.155 26.4 172.855 26.9 175.555 27.5C177.255 27.8 178.955 28.3 180.655 28.9C188.455 31.6 188.055 41.7 183.255 45.4C180.955 47.2 178.155 48.3 175.255 48.6C171.655 49 168.155 48.7 164.955 47.1C161.155 45.3 158.655 41.5 158.755 37.2H164.055C164.055 37.4 164.255 37.8 164.255 38.1C164.555 40.1 165.955 41.7 167.755 42.4C171.255 44 175.255 44 178.555 42.2C180.255 41.4 181.355 39.7 181.155 37.8C181.155 35.9 179.855 34.2 178.055 33.8C175.455 33 172.755 32.6 170.055 31.9C168.155 31.5 166.355 31 164.655 30.3C157.755 27.6 157.955 18.7 162.455 15C165.555 12.5 169.155 11.8 172.955 11.8C176.155 11.8 179.155 12.5 181.855 14.5C184.455 16.6 185.655 19.3 185.755 22.8Z" fill="#0F0F0F"/>
    <path d="M370.755 12.6H374.655C374.955 14.3 375.255 16 375.555 17.9C379.255 12.8 384.255 12 389.855 12.5V17.6C389.255 17.6 388.555 17.6 387.855 17.6C386.155 17.7 384.455 17.7 382.855 18.1C378.755 19.2 376.255 22.9 376.255 27.9C376.155 34 376.255 40 376.255 46.1V47.7H370.755V12.6Z" fill="#0F0F0F"/>
    <path d="M25 13C25 8.02944 29.0294 4 34 4H36C40.9706 4 45 8.02944 45 13V15C45 19.9706 40.9706 24 36 24H34C29.0294 24 25 19.9706 25 15V13Z" fill="#29B3FF"/>
    <path d="M0 13C0 8.02944 4.02944 4 9 4H11C15.9706 4 20 8.02944 20 13V15C20 19.9706 15.9706 24 11 24H9C4.02944 24 0 19.9706 0 15V13Z" fill="#103851"/>
    <path d="M0 38C0 33.0294 4.02944 29 9 29H11C15.9706 29 20 33.0294 20 38V40C20 44.9706 15.9706 49 11 49H9C4.02944 49 0 44.9706 0 40V38Z" fill="#29B3FF"/>
    <path d="M25 38C25 33.0294 29.0294 29 34 29H36C40.9706 29 45 33.0294 45 38V40C45 44.9706 40.9706 49 36 49H34C29.0294 49 25 44.9706 25 40V38Z" fill="#103851"/>
</svg>
